<?xml version="1.0" encoding="utf-8"?>
<svg xmlns="http://www.w3.org/2000/svg" height="746" width="925">
 
 <g>
  <title>Labels</title>
 </g>
 <g>
  <title>Masks</title>
  <g id="0b7ba8d5fada46e29dab40093309e83f-oa-1">
   <rect fill="#FFEBA2" height="29.60526" stroke="#2D2D2D" width="42.10526" x="225.65789" y="85.7982"/>
   <rect fill="#FFEBA2" height="29.60526" stroke="#2D2D2D" width="38.81579" x="290.78947" y="152.90347"/>
   <rect fill="#FFEBA2" height="34.86842" stroke="#2D2D2D" width="46.05263" x="158.55263" y="146.98241"/>
   <rect fill="#FFEBA2" height="29.60526" stroke="#2D2D2D" width="39.47368" x="199.34211" y="220.66662"/>
   <rect fill="#FFEBA2" height="63.15789" stroke="#2D2D2D" width="102.63158" x="345.39474" y="238.42978"/>
   <rect fill="#FFEBA2" height="26.97368" stroke="#2D2D2D" width="38.81579" x="360.52632" y="312.11399"/>
   <rect fill="#FFEBA2" height="27.63158" stroke="#2D2D2D" width="195.39474" x="253.94737" y="12.11399"/>
  </g>
  <g id="0b7ba8d5fada46e29dab40093309e83f-oa-2">
   <rect fill="#FFEBA2" height="29.60526" stroke="#2D2D2D" width="37.5" x="652.63158" y="105.53504"/>
   <rect fill="#FFEBA2" height="28.94737" stroke="#2D2D2D" width="38.15789" x="796.71053" y="106.19294"/>
   <rect fill="#FFEBA2" height="31.57895" stroke="#2D2D2D" width="58.55263" x="805.92105" y="156.85083"/>
  </g>
  <g id="0b7ba8d5fada46e29dab40093309e83f-oa-3">
   <rect fill="#FFEBA2" height="30.26316" stroke="#2D2D2D" width="42.10526" x="644.07895" y="418.03504"/>
   <rect fill="#FFEBA2" height="28.94737" stroke="#2D2D2D" width="38.15789" x="626.31579" y="556.19294"/>
   <rect fill="#FFEBA2" height="30.26316" stroke="#2D2D2D" width="51.31579" x="734.86842" y="425.92978"/>
   <rect fill="#FFEBA2" height="30.92105" stroke="#2D2D2D" width="51.97368" x="778.28947" y="500.92978"/>
   <rect fill="#FFEBA2" height="63.15789" stroke="#2D2D2D" width="123.68421" x="638.81579" y="646.98241"/>
  </g>
  <g id="0b7ba8d5fada46e29dab40093309e83f-oa-4">
   <rect fill="#FFEBA2" height="32.23684" stroke="#2D2D2D" width="32.89474" x="130.92105" y="517.37715"/>
   <rect fill="#FFEBA2" height="28.94737" stroke="#2D2D2D" width="38.81579" x="241.44737" y="514.08768"/>
   <rect fill="#FFEBA2" height="32.89474" stroke="#2D2D2D" width="42.76316" x="178.28947" y="460.14031"/>
   <rect fill="#FFEBA2" height="26.31579" stroke="#2D2D2D" width="34.86842" x="194.07895" y="557.50873"/>
  </g>
 </g>
</svg>