<svg xmlns="http://www.w3.org/2000/svg" width="1125" height="688">
 <!-- Created with Image Occlusion Enhanced -->
 <g>
  <title>Labels</title>
 </g>
 <g>
  <title>Masks</title>
  <rect id="517d2dbce68d4a4a81b7572157931c62-oa-1" height="38.66667" width="142" y="9.77778" x="189.66667" stroke="#2D2D2D" fill="#FFEBA2"/>
  <rect id="517d2dbce68d4a4a81b7572157931c62-oa-2" height="35.33333" width="180" y="411.11111" x="287.66667" stroke="#2D2D2D" fill="#FFEBA2"/>
  <rect id="517d2dbce68d4a4a81b7572157931c62-oa-3" height="28" width="118.66667" y="54.44444" x="602.33333" stroke="#2D2D2D" fill="#FFEBA2"/>
  <rect id="517d2dbce68d4a4a81b7572157931c62-oa-4" height="24" width="114.66667" y="121.11111" x="564.33333" stroke="#2D2D2D" fill="#FFEBA2"/>
  <rect id="517d2dbce68d4a4a81b7572157931c62-oa-5" height="29.33333" width="78" y="189.77778" x="594.33333" stroke="#2D2D2D" fill="#FFEBA2"/>
  <rect id="517d2dbce68d4a4a81b7572157931c62-oa-6" height="28" width="110.66667" y="151.77778" x="703" stroke="#2D2D2D" fill="#FFEBA2"/>
  <rect id="517d2dbce68d4a4a81b7572157931c62-oa-7" height="29.33333" width="94" y="297.77778" x="887.66667" stroke="#2D2D2D" fill="#FFEBA2"/>
  <rect id="517d2dbce68d4a4a81b7572157931c62-oa-8" height="25.33333" width="104" y="352.44444" x="906.33333" stroke="#2D2D2D" fill="#FFEBA2"/>
  <g id="517d2dbce68d4a4a81b7572157931c62-oa-9">
   <rect height="26" width="132.66667" y="397.77778" x="921" stroke="#2D2D2D" fill="#FFEBA2"/>
   <rect height="30" width="121.33333" y="245.11111" x="866.33333" stroke="#2D2D2D" fill="#FFEBA2"/>
   <rect height="25.33333" width="134" y="111.11111" x="789" stroke="#2D2D2D" fill="#FFEBA2"/>
  </g>
  <rect id="517d2dbce68d4a4a81b7572157931c62-oa-10" height="28" width="111.33333" y="409.77778" x="629.66667" stroke="#2D2D2D" fill="#FFEBA2"/>
  <rect id="517d2dbce68d4a4a81b7572157931c62-oa-11" height="25.33333" width="183.33333" y="461.77778" x="597" stroke="#2D2D2D" fill="#FFEBA2"/>
  <g id="517d2dbce68d4a4a81b7572157931c62-oa-12">
   <rect height="26.66667" width="103.33333" y="617.77778" x="821" stroke="#2D2D2D" fill="#FFEBA2"/>
   <rect height="24" width="74.66667" y="565.77778" x="749" stroke="#2D2D2D" fill="#FFEBA2"/>
  </g>
 </g>
</svg>