<?xml version="1.0" encoding="utf-8"?>
<svg xmlns="http://www.w3.org/2000/svg" height="347" width="627">
 
 <g>
  <title>Labels</title>
 </g>
 <g>
  <title>Masks</title>
  <rect fill="#FFEBA2" height="26.80412" id="7e259636dfe14b5eb8308bbf4fa5725c-oa-1" stroke="#2D2D2D" width="26.80412" x="398.08591" y="122.41581"/>
  <rect fill="#FFEBA2" height="24.74227" id="7e259636dfe14b5eb8308bbf4fa5725c-oa-2" stroke="#2D2D2D" width="22.68041" x="451.69416" y="120.35396"/>
  <rect fill="#FFEBA2" height="27.83505" id="7e259636dfe14b5eb8308bbf4fa5725c-oa-3" stroke="#2D2D2D" width="29.89691" x="339.32302" y="100.76633"/>
  <rect fill="#FFEBA2" height="25.7732" id="7e259636dfe14b5eb8308bbf4fa5725c-oa-4" stroke="#2D2D2D" width="21.64948" x="372.31271" y="116.23025"/>
  <rect fill="#FFEBA2" height="22.68041" id="7e259636dfe14b5eb8308bbf4fa5725c-oa-5" stroke="#2D2D2D" width="35.05155" x="336.23024" y="78.08592"/>
  <rect fill="#FFEBA2" height="26.80412" id="7e259636dfe14b5eb8308bbf4fa5725c-oa-6" stroke="#2D2D2D" width="28.86598" x="400.14776" y="79.11684"/>
  <rect fill="#FFEBA2" height="21.64948" id="7e259636dfe14b5eb8308bbf4fa5725c-oa-7" stroke="#2D2D2D" width="28.86598" x="387.77663" y="9.01375"/>
  <rect fill="#FFEBA2" height="18.5567" id="7e259636dfe14b5eb8308bbf4fa5725c-oa-8" stroke="#2D2D2D" width="19.58763" x="159.94158" y="266.74571"/>
  <g id="7e259636dfe14b5eb8308bbf4fa5725c-oa-9">
   <rect fill="#FFEBA2" height="19.58763" stroke="#2D2D2D" width="20.61856" x="301.17869" y="230.66324"/>
   <rect fill="#FFEBA2" height="21.64948" stroke="#2D2D2D" width="21.64948" x="335.19931" y="229.63231"/>
   <rect fill="#FFEBA2" height="20.61856" stroke="#2D2D2D" width="26.80412" x="334.16838" y="167.77664"/>
   <rect fill="#FFEBA2" height="21.64948" stroke="#2D2D2D" width="20.61856" x="294.99312" y="194.58076"/>
   <rect fill="#FFEBA2" height="23.71134" stroke="#2D2D2D" width="24.74227" x="292.93127" y="157.46736"/>
   <rect fill="#FFEBA2" height="20.61856" stroke="#2D2D2D" width="19.58763" x="289.83848" y="264.68386"/>
  </g>
  <g id="7e259636dfe14b5eb8308bbf4fa5725c-oa-10">
   <rect fill="#FFEBA2" height="26.80412" stroke="#2D2D2D" width="39.17526" x="427.98282" y="232.72509"/>
   <rect fill="#FFEBA2" height="25.7732" stroke="#2D2D2D" width="23.71134" x="368.189" y="228.60138"/>
   <rect fill="#FFEBA2" height="23.71134" stroke="#2D2D2D" width="20.61856" x="402.20962" y="230.66324"/>
  </g>
  <g id="7e259636dfe14b5eb8308bbf4fa5725c-oa-11">
   <rect fill="#FFEBA2" height="20.61856" stroke="#2D2D2D" width="26.80412" x="294.99312" y="124.47767"/>
   <rect fill="#FFEBA2" height="23.71134" stroke="#2D2D2D" width="21.64948" x="238.29209" y="100.76633"/>
   <rect fill="#FFEBA2" height="23.71134" stroke="#2D2D2D" width="24.74227" x="157.87972" y="127.57045"/>
   <rect fill="#FFEBA2" height="19.58763" stroke="#2D2D2D" width="21.64948" x="158.91065" y="91.48798"/>
   <rect fill="#FFEBA2" height="15.46392" stroke="#2D2D2D" width="19.58763" x="299.11683" y="94.58076"/>
  </g>
  <g id="7e259636dfe14b5eb8308bbf4fa5725c-oa-12">
   <rect fill="#FFEBA2" height="22.68041" stroke="#2D2D2D" width="31.95876" x="587.77663" y="190.45705"/>
   <rect fill="#FFEBA2" height="28.86598" stroke="#2D2D2D" width="26.80412" x="517.67354" y="186.33334"/>
   <rect fill="#FFEBA2" height="25.7732" stroke="#2D2D2D" width="27.83505" x="512.5189" y="298.70447"/>
  </g>
 </g>
</svg>