<?xml version="1.0" encoding="utf-8"?>
<svg xmlns="http://www.w3.org/2000/svg" height="698" width="1166">
 
 <g>
  <title>Labels</title>
 </g>
 <g>
  <title>Masks</title>
  <rect fill="#FFEBA2" height="26.92308" id="a55709cd8509429fbfc6bb4b37f3223e-oa-1" stroke="#2D2D2D" width="148.07693" x="208.35894" y="218.02566"/>
  <rect fill="#FFEBA2" height="53.84616" id="a55709cd8509429fbfc6bb4b37f3223e-oa-2" stroke="#2D2D2D" width="171.15385" x="379.51279" y="212.25643"/>
  <rect fill="#FFEBA2" height="59.61539" id="a55709cd8509429fbfc6bb4b37f3223e-oa-3" stroke="#2D2D2D" width="84.61539" x="587.20511" y="323.7949"/>
  <rect fill="#FFEBA2" height="44.23077" id="a55709cd8509429fbfc6bb4b37f3223e-oa-4" stroke="#2D2D2D" width="132.69231" x="666.05126" y="229.56412"/>
  <rect fill="#FFEBA2" height="76.92308" id="a55709cd8509429fbfc6bb4b37f3223e-oa-5" stroke="#2D2D2D" width="167.3077" x="723.74357" y="50.71797"/>
  <rect fill="#FFEBA2" height="88.46154" id="a55709cd8509429fbfc6bb4b37f3223e-oa-6" stroke="#2D2D2D" width="240.38462" x="912.20511" y="358.41028"/>
  <rect fill="#FFEBA2" height="32.69231" id="a55709cd8509429fbfc6bb4b37f3223e-oa-7" stroke="#2D2D2D" width="190.38462" x="721.82049" y="541.10259"/>
  <rect fill="#FFEBA2" height="63.46154" id="a55709cd8509429fbfc6bb4b37f3223e-oa-8" stroke="#2D2D2D" width="151.92308" x="600.66665" y="614.17952"/>
  <rect fill="#FFEBA2" height="28.84615" id="a55709cd8509429fbfc6bb4b37f3223e-oa-9" stroke="#2D2D2D" width="175" x="441.05126" y="566.10259"/>
  <rect fill="#FFEBA2" height="32.69231" id="a55709cd8509429fbfc6bb4b37f3223e-oa-10" stroke="#2D2D2D" width="159.61539" x="381.43587" y="654.56413"/>
  <rect fill="#FFEBA2" height="92.30769" id="a55709cd8509429fbfc6bb4b37f3223e-oa-11" stroke="#2D2D2D" width="113.46154" x="242.97433" y="473.7949"/>
  <rect fill="#FFEBA2" height="51.92308" id="a55709cd8509429fbfc6bb4b37f3223e-oa-12" stroke="#2D2D2D" width="165.38462" x="271.82048" y="368.02567"/>
  <rect fill="#FFEBA2" height="28.84615" id="a55709cd8509429fbfc6bb4b37f3223e-oa-13" stroke="#2D2D2D" width="123.07693" x="114.12817" y="327.64105"/>
  <rect fill="#FFEBA2" height="50" id="a55709cd8509429fbfc6bb4b37f3223e-oa-14" stroke="#2D2D2D" width="146.15385" x="156.43587" y="266.10259"/>
  <rect fill="#FFEBA2" height="40.38462" id="a55709cd8509429fbfc6bb4b37f3223e-oa-15" stroke="#2D2D2D" width="230.76924" x="341.05126" y="108.41028"/>
  <rect fill="#FFEBA2" height="30.76923" id="a55709cd8509429fbfc6bb4b37f3223e-oa-16" stroke="#2D2D2D" width="246.15385" x="337.2051" y="8.41027"/>
 </g>
</svg>