<?xml version="1.0" encoding="utf-8"?>
<svg xmlns="http://www.w3.org/2000/svg" height="759" width="1194">
 
 <g>
  <title>Labels</title>
 </g>
 <g>
  <title>Masks</title>
  <rect fill="#FFEBA2" height="42.5" id="c752ae85bf8a4dd39f19498fdfa446b0-oa-1" stroke="#2D2D2D" width="180" x="18.08332" y="139.74998"/>
  <rect fill="#FFEBA2" height="27.5" id="c752ae85bf8a4dd39f19498fdfa446b0-oa-2" stroke="#2D2D2D" width="178.75" x="18.08332" y="218.49998"/>
  <rect fill="#FFEBA2" height="30" id="c752ae85bf8a4dd39f19498fdfa446b0-oa-3" stroke="#2D2D2D" width="170" x="25.58332" y="258.49998"/>
  <rect fill="#FFEBA2" height="33.75" id="c752ae85bf8a4dd39f19498fdfa446b0-oa-4" stroke="#2D2D2D" width="157.5" x="43.08332" y="305.99998"/>
  <rect fill="#FFEBA2" height="30" id="c752ae85bf8a4dd39f19498fdfa446b0-oa-5" stroke="#2D2D2D" width="187.5" x="8.08332" y="365.99998"/>
  <rect fill="#FFEBA2" height="30" id="c752ae85bf8a4dd39f19498fdfa446b0-oa-6" stroke="#2D2D2D" width="192.5" x="10.58332" y="482.24998"/>
  <rect fill="#FFEBA2" height="26.25" id="c752ae85bf8a4dd39f19498fdfa446b0-oa-7" stroke="#2D2D2D" width="143.75" x="58.08332" y="520.99998"/>
  <rect fill="#FFEBA2" height="36.25" id="c752ae85bf8a4dd39f19498fdfa446b0-oa-8" stroke="#2D2D2D" width="186.25" x="15.58332" y="579.74997"/>
  <rect fill="#FFEBA2" height="40" id="c752ae85bf8a4dd39f19498fdfa446b0-oa-9" stroke="#2D2D2D" width="243.75" x="935.58331" y="645.99997"/>
  <rect fill="#FFEBA2" height="55" id="c752ae85bf8a4dd39f19498fdfa446b0-oa-10" stroke="#2D2D2D" width="155" x="948.08331" y="698.49997"/>
  <rect fill="#FFEBA2" height="27.5" id="c752ae85bf8a4dd39f19498fdfa446b0-oa-11" stroke="#2D2D2D" width="200" x="941.83331" y="469.74998"/>
  <rect fill="#FFEBA2" height="30" id="c752ae85bf8a4dd39f19498fdfa446b0-oa-12" stroke="#2D2D2D" width="178.75" x="948.08331" y="515.99998"/>
  <rect fill="#FFEBA2" height="30" id="c752ae85bf8a4dd39f19498fdfa446b0-oa-13" stroke="#2D2D2D" width="128.75" x="946.83331" y="572.24997"/>
  <rect fill="#FFEBA2" height="37.5" id="c752ae85bf8a4dd39f19498fdfa446b0-oa-14" stroke="#2D2D2D" width="187.5" x="944.33331" y="363.49998"/>
  <rect fill="#FFEBA2" height="31.25" id="c752ae85bf8a4dd39f19498fdfa446b0-oa-15" stroke="#2D2D2D" width="115" x="945.58331" y="237.24998"/>
  <rect fill="#FFEBA2" height="65" id="c752ae85bf8a4dd39f19498fdfa446b0-oa-16" stroke="#2D2D2D" width="188.75" x="941.83331" y="145.99998"/>
  <rect fill="#FFEBA2" height="27.5" id="c752ae85bf8a4dd39f19498fdfa446b0-oa-17" stroke="#2D2D2D" width="120" x="583.08331" y="5.99998"/>
  <rect fill="#FFEBA2" height="40" id="c752ae85bf8a4dd39f19498fdfa446b0-oa-18" stroke="#2D2D2D" width="117.5" x="443.08331" y="5.99998"/>
  <rect fill="#FFEBA2" height="37.5" id="c752ae85bf8a4dd39f19498fdfa446b0-oa-19" stroke="#2D2D2D" width="175" x="240.58331" y="3.49998"/>
 </g>
</svg>